<svg width="32" height="32" viewBox="0 0 32 32" fill="none" xmlns="http://www.w3.org/2000/svg">
<path opacity="0.5" d="M15.877 21.2597L10.887 26.4264L10.887 26.4264C10.1723 27.1663 9.81504 27.5363 9.51244 27.6643C8.82291 27.956 8.05803 27.7064 7.69531 27.0712C7.53613 26.7924 7.48653 26.2896 7.38733 25.2841C7.33131 24.7163 7.30331 24.4324 7.2183 24.1947C7.02798 23.6624 6.62807 23.2483 6.11398 23.0512C5.88435 22.9632 5.61017 22.9342 5.06187 22.8762L5.06183 22.8762C4.09065 22.7735 3.60505 22.7221 3.33584 22.5573C2.72236 22.1818 2.48124 21.3898 2.763 20.6759C2.88664 20.3626 3.24396 19.9926 3.95858 19.2527L7.2183 15.8775L8.85657 14.2393L15.877 21.2597L22.8974 14.2393L24.5357 15.8775L27.7954 19.2527C28.51 19.9926 28.8673 20.3626 28.991 20.6759C29.2727 21.3898 29.0316 22.1818 28.4181 22.5573C28.1489 22.7221 27.6633 22.7735 26.6921 22.8762C26.1438 22.9342 25.8696 22.9632 25.64 23.0512C25.1259 23.2483 24.726 23.6624 24.5357 24.1947C24.4507 24.4324 24.4227 24.7163 24.3667 25.284L24.3667 25.2841C24.2674 26.2896 24.2178 26.7924 24.0587 27.0712C23.6959 27.7064 22.9311 27.956 22.2415 27.6643C21.9389 27.5363 21.5816 27.1663 20.867 26.4264L15.877 21.2597Z" fill="#F5F5FE"/>
<path fill-rule="evenodd" clip-rule="evenodd" d="M15.8774 21.1699C20.9925 21.1699 25.1391 17.0233 25.1391 11.9082C25.1391 6.79309 20.9925 2.64648 15.8774 2.64648C10.7623 2.64648 6.61572 6.79309 6.61572 11.9082C6.61572 17.0233 10.7623 21.1699 15.8774 21.1699ZM15.8774 7.93888C15.5016 7.93888 15.2502 8.38984 14.7474 9.29177L14.6174 9.52511C14.4745 9.7814 14.403 9.90955 14.2917 9.99411C14.1803 10.0787 14.0416 10.11 13.7641 10.1728L13.5115 10.23C12.5352 10.4509 12.0471 10.5613 11.9309 10.9348C11.8148 11.3083 12.1476 11.6974 12.8132 12.4758L12.9854 12.6771C13.1745 12.8983 13.2691 13.0089 13.3116 13.1457C13.3542 13.2825 13.3399 13.4301 13.3113 13.7251L13.2852 13.9938C13.1846 15.0323 13.1343 15.5515 13.4383 15.7823C13.7424 16.0131 14.1995 15.8027 15.1136 15.3818L15.3501 15.2729C15.6099 15.1533 15.7397 15.0935 15.8774 15.0935C16.0151 15.0935 16.145 15.1533 16.4047 15.2729L16.6412 15.3818C17.5554 15.8027 18.0124 16.0131 18.3165 15.7823C18.6206 15.5515 18.5702 15.0323 18.4696 13.9938L18.4436 13.7251C18.415 13.4301 18.4007 13.2825 18.4432 13.1457C18.4858 13.0089 18.5803 12.8983 18.7695 12.6771L18.9417 12.4758C19.6073 11.6974 19.9401 11.3083 19.8239 10.9348C19.7078 10.5613 19.2196 10.4509 18.2433 10.23L17.9907 10.1728C17.7133 10.11 17.5746 10.0787 17.4632 9.99411C17.3518 9.90955 17.2804 9.7814 17.1375 9.5251L17.0074 9.29177C16.5046 8.38984 16.2533 7.93888 15.8774 7.93888Z" fill="#F5F5FE"/>
</svg>
