<svg width="25" height="25" viewBox="0 0 25 25" fill="none" xmlns="http://www.w3.org/2000/svg">
<path fill-rule="evenodd" clip-rule="evenodd" d="M5.30526 3.31128H19.6406L9.21228 13.7396C9.04876 13.3142 8.78662 12.9489 8.41553 12.6268C8.18223 12.4242 7.8564 12.2408 7.20474 11.874L4.22193 10.1949C3.25067 9.6481 2.76504 9.37472 2.49922 8.93424C2.2334 8.49376 2.2334 7.9624 2.2334 6.8997V6.19336C2.2334 4.83473 2.2334 4.15542 2.68326 3.73335C3.13313 3.31128 3.85717 3.31128 5.30526 3.31128Z" fill="#A3A2AA"/>
<path opacity="0.5" d="M22.7123 6.8997V6.19336C22.7123 4.83473 22.7123 4.15542 22.2625 3.73335C21.8126 3.31128 21.0886 3.31128 19.6405 3.31128L9.21216 13.7396C9.26272 13.8712 9.30386 14.0085 9.33587 14.152C9.40095 14.4439 9.40095 14.7855 9.40095 15.4686L9.40095 18.202C9.40095 19.1334 9.40095 19.599 9.65891 19.9621C9.91687 20.3251 10.375 20.5042 11.2913 20.8624C13.215 21.6144 14.1768 21.9904 14.8607 21.5626C15.5447 21.1348 15.5447 20.1572 15.5447 18.202V15.4686C15.5447 14.7855 15.5447 14.4439 15.6098 14.152C15.7453 13.5442 16.0444 13.0486 16.5302 12.6268C16.7635 12.4242 17.0893 12.2408 17.741 11.874L20.7238 10.1949C21.6951 9.6481 22.1807 9.37472 22.4465 8.93424C22.7123 8.49376 22.7123 7.9624 22.7123 6.8997Z" fill="#A3A2AA"/>
</svg>
