<svg width="24" height="24" viewBox="0 0 24 24" fill="none" xmlns="http://www.w3.org/2000/svg">
<path opacity="0.5" d="M20.8482 8.71306C22.3839 7.17735 22.3839 4.68748 20.8482 3.15178C19.3125 1.61607 16.8226 1.61607 15.2869 3.15178L14.3999 4.03882C14.412 4.0755 14.4246 4.11268 14.4377 4.15035C14.7628 5.0875 15.3763 6.31601 16.5303 7.47002C17.6843 8.62403 18.9128 9.23749 19.85 9.56262C19.8875 9.57563 19.9245 9.58817 19.961 9.60026L20.8482 8.71306Z" fill="#A3A2AA"/>
<path d="M14.4386 4.00073L14.4004 4.03893C14.4125 4.07561 14.4251 4.11279 14.4382 4.15046C14.7633 5.08761 15.3768 6.31612 16.5308 7.47013C17.6848 8.62414 18.9133 9.23759 19.8505 9.56273C19.8876 9.57562 19.9243 9.58806 19.9606 9.60006L11.4001 18.1605C10.823 18.7376 10.5343 19.0263 10.2162 19.2744C9.84082 19.5672 9.43469 19.8182 9.00498 20.023C8.6407 20.1966 8.25351 20.3257 7.47918 20.5838L3.39584 21.9449C3.01478 22.0719 2.59466 21.9727 2.31063 21.6887C2.0266 21.4047 1.92743 20.9846 2.05445 20.6035L3.41556 16.5202C3.67368 15.7458 3.80273 15.3586 3.97634 14.9944C4.18114 14.5646 4.43213 14.1585 4.7249 13.7832C4.97307 13.465 5.26165 13.1764 5.83874 12.5993L14.4386 4.00073Z" fill="#A3A2AA"/>
</svg>
