<svg width="24" height="24" viewBox="0 0 24 24" fill="none" xmlns="http://www.w3.org/2000/svg">
<path opacity="0.5" d="M11.6066 22.0001H12.3935C15.101 22.0001 16.4548 22.0001 17.3349 21.1369C18.2151 20.2737 18.3052 18.8577 18.4853 16.0258L18.7448 11.9453C18.8425 10.4087 18.8914 9.64045 18.4498 9.1536C18.0082 8.66675 17.2626 8.66675 15.7712 8.66675H8.22887C6.73752 8.66675 5.99185 8.66675 5.55029 9.1536C5.10873 9.64045 5.15759 10.4087 5.25531 11.9453L5.51482 16.0258C5.69492 18.8577 5.78497 20.2737 6.66516 21.1369C7.54534 22.0001 8.89909 22.0001 11.6066 22.0001Z" fill="#A3A2AA"/>
<path d="M3 6.52381C3 6.12932 3.32671 5.80952 3.72973 5.80952H8.51787C8.52437 4.9683 8.61554 3.81504 9.45037 3.01668C10.1074 2.38839 11.0081 2 12 2C12.9919 2 13.8926 2.38839 14.5496 3.01668C15.3844 3.81504 15.4756 4.9683 15.4821 5.80952H20.2703C20.6733 5.80952 21 6.12932 21 6.52381C21 6.9183 20.6733 7.2381 20.2703 7.2381H3.72973C3.32671 7.2381 3 6.9183 3 6.52381Z" fill="#A3A2AA"/>
</svg>
