<svg width="25" height="25" viewBox="0 0 25 25" fill="none" xmlns="http://www.w3.org/2000/svg">
<path opacity="0.5" d="M2.5 8.5V12.5C2.5 15.3284 2.5 16.7426 3.37868 17.6213C3.85503 18.0977 4.48877 18.3158 5.4199 18.4156C5.4939 18.3157 5.56395 18.237 5.61392 18.1821C5.73008 18.0543 5.87739 17.9091 6.0202 17.7683L7.51311 16.2962L8.06446 15.7377C8.4268 13.6151 10.2746 12 12.5001 12C14.7255 12 16.5733 13.6151 16.9357 15.7377L17.487 16.2962L18.98 17.7684C19.1228 17.9092 19.2701 18.0544 19.3862 18.1821C19.4362 18.237 19.5062 18.3157 19.5802 18.4156C20.5113 18.3158 21.145 18.0977 21.6213 17.6213C22.5 16.7426 22.5 15.3284 22.5 12.5V8.5C22.5 5.67157 22.5 4.25736 21.6213 3.37868C20.7426 2.5 19.3284 2.5 16.5 2.5H8.5C5.67157 2.5 4.25736 2.5 3.37868 3.37868C2.5 4.25736 2.5 5.67157 2.5 8.5Z" fill="#8870E7"/>
<path d="M7.5 9.25C7.08579 9.25 6.75 9.58579 6.75 10C6.75 10.4142 7.08579 10.75 7.5 10.75H17.5C17.9142 10.75 18.25 10.4142 18.25 10C18.25 9.58579 17.9142 9.25 17.5 9.25H7.5Z" fill="#8870E7"/>
<path d="M8.75 6.5C8.75 6.08579 9.08579 5.75 9.5 5.75H15.5C15.9142 5.75 16.25 6.08579 16.25 6.5C16.25 6.91421 15.9142 7.25 15.5 7.25H9.5C9.08579 7.25 8.75 6.91421 8.75 6.5Z" fill="#8870E7"/>
<path d="M9.50111 16.4174C9.50037 16.4449 9.5 16.4724 9.5 16.5C9.5 18.1569 10.8431 19.5 12.5 19.5C14.1569 19.5 15.5 18.1569 15.5 16.5C15.5 16.4724 15.4996 16.4449 15.4989 16.4174C15.4551 14.7987 14.1292 13.5 12.5 13.5C10.9467 13.5 9.66912 14.6805 9.51549 16.1933C9.50798 16.2672 9.50315 16.342 9.50111 16.4174Z" fill="#8870E7"/>
<path d="M8.1757 17.7494L7.09523 18.8148C6.77116 19.1344 6.60913 19.2942 6.55306 19.4295C6.42529 19.7378 6.53463 20.0799 6.81283 20.2421C6.93491 20.3132 7.15512 20.3354 7.59553 20.3798C7.8442 20.4048 7.96853 20.4173 8.07266 20.4554C8.30579 20.5405 8.48715 20.7193 8.57345 20.9492C8.612 21.0519 8.6247 21.1745 8.6501 21.4197C8.69509 21.854 8.71758 22.0711 8.78977 22.1915C8.95425 22.4659 9.30111 22.5737 9.6138 22.4477C9.75102 22.3924 9.91306 22.2326 10.2371 21.913L11.3175 20.843C9.80505 20.4322 8.60917 19.2524 8.1757 17.7494Z" fill="#8870E7"/>
<path d="M13.6825 20.843L14.7629 21.913C15.0869 22.2326 15.249 22.3924 15.3862 22.4477C15.6989 22.5737 16.0457 22.4659 16.2102 22.1915C16.2824 22.0711 16.3049 21.854 16.3499 21.4197C16.3753 21.1745 16.388 21.0519 16.4265 20.9492C16.5129 20.7193 16.6942 20.5405 16.9273 20.4554C17.0315 20.4173 17.1558 20.4048 17.4045 20.3798C17.8449 20.3354 18.0651 20.3132 18.1872 20.2421C18.4654 20.0799 18.5747 19.7378 18.4469 19.4295C18.3909 19.2942 18.2288 19.1344 17.9048 18.8148L16.8243 17.7494C16.3908 19.2524 15.1949 20.4322 13.6825 20.843Z" fill="#8870E7"/>
</svg>
