<svg width="22" height="22" viewBox="0 0 22 22" fill="none" xmlns="http://www.w3.org/2000/svg">
<path opacity="0.5" d="M12.4788 2.63623H8.61212C4.96659 2.63623 3.14383 2.63623 2.0113 3.79449C0.878784 4.95275 0.878784 6.81694 0.878784 10.5453C0.878784 14.2737 0.878784 16.1379 2.0113 17.2962C3.14383 18.4544 4.96659 18.4544 8.61212 18.4544H12.4788C16.1243 18.4544 17.9471 18.4544 19.0796 17.2962C20.2121 16.1379 20.2121 14.2737 20.2121 10.5453C20.2121 6.81694 20.2121 4.95275 19.0796 3.79449C17.9471 2.63623 16.1243 2.63623 12.4788 2.63623Z" fill="#2B2B2D"/>
<path d="M16.8098 7.0603C17.1174 6.80396 17.1589 6.34681 16.9026 6.0392C16.6463 5.7316 16.1891 5.69004 15.8815 5.94638L13.7946 7.68549C12.8927 8.43704 12.2666 8.95714 11.738 9.29713C11.2262 9.62624 10.8792 9.73672 10.5456 9.73672C10.2121 9.73672 9.86506 9.62624 9.35335 9.29713C8.82472 8.95714 8.19858 8.43704 7.29672 7.68549L5.20978 5.94638C4.90218 5.69004 4.44502 5.7316 4.18869 6.0392C3.93235 6.34681 3.97391 6.80396 4.28151 7.0603L6.40479 8.8297C7.2616 9.54373 7.95606 10.1225 8.56899 10.5167C9.20747 10.9273 9.82927 11.1867 10.5456 11.1867C11.262 11.1867 11.8838 10.9273 12.5223 10.5167C13.1352 10.1225 13.8297 9.54372 14.6865 8.82969L16.8098 7.0603Z" fill="#2B2B2D"/>
</svg>
