<svg width="22" height="22" viewBox="0 0 22 22" fill="none" xmlns="http://www.w3.org/2000/svg">
<path opacity="0.5" d="M8.8209 4.76259L9.39124 5.78456C9.90595 6.70683 9.69933 7.9167 8.88867 8.72736C8.88867 8.72736 7.90536 9.71067 9.68819 11.4935C11.471 13.2763 12.4543 12.293 12.4543 12.293C13.265 11.4824 14.4749 11.2757 15.3971 11.7905L16.4191 12.3608C17.8118 13.138 17.9762 15.091 16.7521 16.3152C16.0166 17.0507 15.1155 17.623 14.1194 17.6608C12.4425 17.7244 9.59484 17.3 6.73827 14.4434C3.8817 11.5869 3.45733 8.73915 3.52089 7.06231C3.55866 6.06621 4.13099 5.16513 4.86654 4.42958C6.09065 3.20548 8.04368 3.36995 8.8209 4.76259Z" fill="#2B2B2D"/>
<path d="M11.6523 1.74294C11.7104 1.38361 12.0501 1.13986 12.4094 1.19803C12.4317 1.20229 12.5032 1.21567 12.5407 1.22402C12.6157 1.24072 12.7203 1.26643 12.8508 1.30442C13.1116 1.38038 13.4759 1.50552 13.9132 1.70601C14.7887 2.1074 15.9538 2.80955 17.1629 4.01859C18.3719 5.22763 19.0741 6.39273 19.4754 7.26825C19.6759 7.70555 19.8011 8.0699 19.877 8.33071C19.915 8.46112 19.9407 8.56572 19.9574 8.64071C19.9658 8.67821 19.9719 8.70831 19.9761 8.73055L19.9812 8.75797C20.0394 9.1173 19.7978 9.47102 19.4385 9.5292C19.0802 9.5872 18.7427 9.34463 18.6831 8.98699C18.6812 8.97739 18.6762 8.95159 18.6708 8.92725C18.6599 8.87858 18.6412 8.80141 18.6114 8.69933C18.552 8.49516 18.4487 8.19168 18.2772 7.8176C17.9346 7.07037 17.3186 6.0385 16.2308 4.95069C15.143 3.86287 14.1111 3.24684 13.3639 2.90426C12.9898 2.73276 12.6863 2.62947 12.4821 2.57001C12.38 2.54027 12.2517 2.51082 12.2031 2.49999C11.8454 2.44038 11.5943 2.10124 11.6523 1.74294Z" fill="#2B2B2D"/>
<path fill-rule="evenodd" clip-rule="evenodd" d="M11.8511 4.77429C11.9511 4.42429 12.3159 4.22162 12.6659 4.32162L12.4848 4.95536C12.6659 4.32162 12.6659 4.32162 12.6659 4.32162L12.6671 4.32199L12.6685 4.32238L12.6714 4.32323L12.6782 4.32527L12.6956 4.33068C12.7089 4.33492 12.7254 4.34044 12.7452 4.34744C12.7846 4.36144 12.8368 4.38136 12.9008 4.40878C13.0288 4.46365 13.2037 4.54838 13.4186 4.67555C13.8487 4.93012 14.4359 5.35298 15.1258 6.0428C15.8156 6.73262 16.2384 7.31982 16.493 7.74995C16.6202 7.96483 16.7049 8.13976 16.7598 8.26779C16.7872 8.33177 16.8071 8.38393 16.8211 8.4234C16.8281 8.44313 16.8336 8.45968 16.8379 8.47293L16.8433 8.49032L16.8453 8.49713L16.8462 8.50006L16.8466 8.50141C16.8466 8.50141 16.8469 8.50267 16.2132 8.68374L16.8469 8.50267C16.9469 8.85267 16.7443 9.21747 16.3943 9.31747C16.0472 9.41662 15.6857 9.21822 15.5821 8.87369L15.5788 8.86421C15.5741 8.85101 15.5644 8.82501 15.5482 8.78705C15.5157 8.71118 15.4567 8.58706 15.3586 8.42133C15.1627 8.09025 14.8088 7.59001 14.1937 6.9749C13.5785 6.35979 13.0783 6.00589 12.7472 5.80995C12.5815 5.71186 12.4574 5.6529 12.3815 5.62038C12.3435 5.60411 12.3175 5.59442 12.3043 5.58973L12.2949 5.58648C11.9503 5.48289 11.7519 5.12132 11.8511 4.77429Z" fill="#2B2B2D"/>
</svg>
