<svg width="24" height="25" viewBox="0 0 24 25" fill="none" xmlns="http://www.w3.org/2000/svg">
<path opacity="0.5" d="M11.6065 22.5001H12.3935C15.1009 22.5001 16.4547 22.5001 17.3349 21.6369C18.2151 20.7737 18.3051 19.3577 18.4852 16.5258L18.7447 12.4453C18.8424 10.9087 18.8913 10.1404 18.4497 9.6536C18.0082 9.16675 17.2625 9.16675 15.7712 9.16675H8.22881C6.73746 9.16675 5.99179 9.16675 5.55023 9.6536C5.10867 10.1404 5.15753 10.9087 5.25525 12.4453L5.51476 16.5258C5.69486 19.3577 5.78491 20.7737 6.66509 21.6369C7.54528 22.5001 8.89903 22.5001 11.6065 22.5001Z" fill="#F61C4F"/>
<path d="M3 7.02381C3 6.62932 3.32671 6.30952 3.72973 6.30952H8.51787C8.52437 5.4683 8.61554 4.31504 9.45037 3.51668C10.1074 2.88839 11.0081 2.5 12 2.5C12.9919 2.5 13.8926 2.88839 14.5496 3.51668C15.3844 4.31504 15.4756 5.4683 15.4821 6.30952H20.2703C20.6733 6.30952 21 6.62932 21 7.02381C21 7.4183 20.6733 7.7381 20.2703 7.7381H3.72973C3.32671 7.7381 3 7.4183 3 7.02381Z" fill="#F61C4F"/>
</svg>
