<svg width="24" height="25" viewBox="0 0 24 25" fill="none" xmlns="http://www.w3.org/2000/svg">
<circle cx="11" cy="6.5" r="4" fill="#8870E7"/>
<path fill-rule="evenodd" clip-rule="evenodd" d="M14.5126 21.9874C15.0251 22.5 15.8501 22.5 17.5 22.5C19.1499 22.5 19.9749 22.5 20.4874 21.9874C21 21.4749 21 20.6499 21 19C21 17.3501 21 16.5251 20.4874 16.0126C19.9749 15.5 19.1499 15.5 17.5 15.5C15.8501 15.5 15.0251 15.5 14.5126 16.0126C14 16.5251 14 17.3501 14 19C14 20.6499 14 21.4749 14.5126 21.9874ZM16.5266 20.4765C15.8245 19.9738 15 19.3833 15 18.3598C15 17.2299 16.375 16.4285 17.5 17.5148C18.625 16.4285 20 17.2299 20 18.3598C20 19.3833 19.1755 19.9738 18.4734 20.4765C18.4005 20.5287 18.3288 20.58 18.2596 20.6308C18 20.8209 17.75 21 17.5 21C17.25 21 17 20.8209 16.7404 20.6308C16.6712 20.58 16.5995 20.5287 16.5266 20.4765Z" fill="#8870E7"/>
<path opacity="0.5" d="M14.5942 22.0625C14.5661 22.0388 14.5389 22.0138 14.5126 21.9874C14 21.4749 14 20.6499 14 19C14 17.3501 14 16.5251 14.5126 16.0126C15.0251 15.5 15.8501 15.5 17.5 15.5C17.6501 15.5 17.7933 15.5 17.9301 15.5004C16.547 14.1551 13.9614 13.25 11 13.25C6.58172 13.25 3 15.2647 3 17.75C3 20.2353 3 22.25 11 22.25C12.4426 22.25 13.625 22.1845 14.5942 22.0625Z" fill="#8870E7"/>
</svg>
