<svg width="25" height="24" viewBox="0 0 25 24" fill="none" xmlns="http://www.w3.org/2000/svg">
<path opacity="0.5" d="M2.29346 6.21053C2.29346 4.22567 2.29346 3.23323 2.95247 2.61662C3.61148 2 4.67214 2 6.79346 2C8.91478 2 9.97544 2 10.6344 2.61662C11.2935 3.23323 11.2935 4.22567 11.2935 6.21053V17.7895C11.2935 19.7743 11.2935 20.7668 10.6344 21.3834C9.97544 22 8.91478 22 6.79346 22C4.67214 22 3.61148 22 2.95247 21.3834C2.29346 20.7668 2.29346 19.7743 2.29346 17.7895V6.21053Z" fill="#AFAEB4"/>
<path d="M13.2935 15.4C13.2935 13.3258 13.2935 12.2887 13.9525 11.6444C14.6115 11 15.6721 11 17.7935 11C19.9148 11 20.9754 11 21.6344 11.6444C22.2935 12.2887 22.2935 13.3258 22.2935 15.4V17.6C22.2935 19.6742 22.2935 20.7113 21.6344 21.3556C20.9754 22 19.9148 22 17.7935 22C15.6721 22 14.6115 22 13.9525 21.3556C13.2935 20.7113 13.2935 19.6742 13.2935 17.6V15.4Z" fill="#AFAEB4"/>
<path d="M13.2935 5.5C13.2935 4.4128 13.2935 3.8692 13.4647 3.44041C13.6931 2.86867 14.1311 2.41443 14.6824 2.17761C15.0959 2 15.6201 2 16.6685 2H18.9185C19.9668 2 20.491 2 20.9045 2.17761C21.4558 2.41443 21.8938 2.86867 22.1222 3.44041C22.2935 3.8692 22.2935 4.4128 22.2935 5.5C22.2935 6.5872 22.2935 7.1308 22.1222 7.55959C21.8938 8.13133 21.4558 8.58557 20.9045 8.82239C20.491 9 19.9668 9 18.9185 9H16.6685C15.6201 9 15.0959 9 14.6824 8.82239C14.1311 8.58557 13.6931 8.13133 13.4647 7.55959C13.2935 7.1308 13.2935 6.5872 13.2935 5.5Z" fill="#AFAEB4"/>
</svg>
