<svg width="25" height="25" viewBox="0 0 25 25" fill="none" xmlns="http://www.w3.org/2000/svg">
<path opacity="0.5" d="M22.5001 16.5C22.5001 13.6716 22.5001 12.2574 21.6214 11.3787C21.1315 10.8888 20.4752 10.672 19.5001 10.5761C18.6668 10.5507 16.7001 10.5 15.5001 10.5H8.50007C6.45519 10.5 5.14951 10.5 4.25098 10.832L22.1868 20.6968C22.5001 19.8 22.5001 18.5055 22.5001 16.5Z" fill="#F61C4F"/>
<path d="M11.2576 16.3979L3.01112 11.8623C2.5 12.7636 2.5 14.1392 2.5 16.5002C2.5 19.1659 2.5 20.5754 3.23557 21.4644L11.2576 16.3979Z" fill="#F61C4F"/>
<path d="M8.50004 22.5002H16.5C18.9823 22.5002 20.3753 22.5002 21.273 21.9063L12.7591 17.2236L4.71582 22.3036C5.58709 22.5002 6.78296 22.5002 8.50004 22.5002Z" fill="#F61C4F"/>
<path d="M17.5 2.5C15.8431 2.5 14.5 3.84315 14.5 5.5C14.5 6.89788 15.4561 8.07246 16.75 8.40549L16.75 13.5C16.75 13.9142 17.0858 14.25 17.5 14.25C17.9142 14.25 18.25 13.9142 18.25 13.5V8.40549C19.5439 8.07245 20.5 6.89788 20.5 5.5C20.5 3.84315 19.1569 2.5 17.5 2.5Z" fill="#F61C4F"/>
</svg>
