<svg width="25" height="25" viewBox="0 0 25 25" fill="none" xmlns="http://www.w3.org/2000/svg">
<path fill-rule="evenodd" clip-rule="evenodd" d="M6.29624 18.7037L22.0122 2.98782C21.0237 1.99939 19.1511 2.62356 15.406 3.87189L6.07477 6.98218C3.99295 7.6761 2.95203 8.02305 2.63608 8.78637C2.56182 8.96577 2.51692 9.15596 2.50311 9.34963C2.44433 10.1737 3.22018 10.9495 4.77188 12.5011L5.05451 12.7837C5.30921 13.0384 5.43655 13.1658 5.53282 13.3075C5.72269 13.5871 5.83046 13.9143 5.84393 14.2519C5.85076 14.4232 5.82403 14.6013 5.77057 14.9574C5.57488 16.2612 5.47703 16.9131 5.5923 17.4147C5.70622 17.9105 5.95393 18.3534 6.29624 18.7037Z" fill="#F61C4F"/>
<path opacity="0.5" d="M17.9976 18.9856L21.1282 9.59419C22.3766 5.8492 23.0008 3.97671 22.0123 2.98828L6.29639 18.7042C6.64444 19.0604 7.09028 19.3208 7.59271 19.4438C8.09269 19.5661 8.74591 19.4774 10.0523 19.3001L10.1238 19.2904C10.4921 19.2404 10.6762 19.2155 10.853 19.2261C11.174 19.2455 11.484 19.35 11.7511 19.529C11.8983 19.6276 12.0297 19.759 12.2925 20.0217L12.5437 20.273C14.054 21.7832 14.8092 22.5383 15.6102 22.499C15.8311 22.4882 16.048 22.4369 16.2504 22.3479C16.9845 22.0248 17.3222 21.0117 17.9976 18.9856Z" fill="#F61C4F"/>
</svg>
