<svg width="25" height="25" viewBox="0 0 25 25" fill="none" xmlns="http://www.w3.org/2000/svg">
<circle cx="11.5" cy="6.5" r="4" fill="#F61C4F"/>
<path fill-rule="evenodd" clip-rule="evenodd" d="M15.0126 21.9874C15.5251 22.5 16.3501 22.5 18 22.5C19.6499 22.5 20.4749 22.5 20.9874 21.9874C21.5 21.4749 21.5 20.6499 21.5 19C21.5 17.3501 21.5 16.5251 20.9874 16.0126C20.4749 15.5 19.6499 15.5 18 15.5C16.3501 15.5 15.5251 15.5 15.0126 16.0126C14.5 16.5251 14.5 17.3501 14.5 19C14.5 20.6499 14.5 21.4749 15.0126 21.9874ZM17.0266 20.4765C16.3245 19.9738 15.5 19.3833 15.5 18.3598C15.5 17.2299 16.875 16.4285 18 17.5148C19.125 16.4285 20.5 17.2299 20.5 18.3598C20.5 19.3833 19.6755 19.9738 18.9734 20.4765C18.9005 20.5287 18.8288 20.58 18.7596 20.6308C18.5 20.8209 18.25 21 18 21C17.75 21 17.5 20.8209 17.2404 20.6308C17.1712 20.58 17.0995 20.5287 17.0266 20.4765Z" fill="#F61C4F"/>
<path opacity="0.5" d="M15.0942 22.0625C15.0661 22.0388 15.0389 22.0138 15.0126 21.9874C14.5 21.4749 14.5 20.6499 14.5 19C14.5 17.3501 14.5 16.5251 15.0126 16.0126C15.5251 15.5 16.3501 15.5 18 15.5C18.1501 15.5 18.2933 15.5 18.4301 15.5004C17.047 14.1551 14.4614 13.25 11.5 13.25C7.08172 13.25 3.5 15.2647 3.5 17.75C3.5 20.2353 3.5 22.25 11.5 22.25C12.9426 22.25 14.125 22.1845 15.0942 22.0625Z" fill="#F61C4F"/>
</svg>
