<svg width="25" height="25" viewBox="0 0 25 25" fill="none" xmlns="http://www.w3.org/2000/svg">
<g opacity="0.5">
<path d="M13.235 14.8031C12.9655 14.7809 12.7173 14.6132 12.605 14.3468C12.4441 13.9652 12.6231 13.5253 13.0047 13.3644C13.2291 13.2698 13.4461 13.127 13.6501 12.9231C13.9222 12.6509 14.3515 12.6316 14.6459 12.8653C14.7079 12.8667 14.7707 12.8759 14.8331 12.8935C15.2317 13.006 15.4636 13.4205 15.351 13.8191C15.1401 14.5658 14.7513 15.2968 14.2462 15.9666C13.9968 16.2973 13.5265 16.3632 13.1958 16.1138C12.8651 15.8643 12.7992 15.3941 13.0486 15.0634C13.1138 14.9769 13.176 14.8901 13.235 14.8031Z" fill="#F61C4F"/>
<path d="M10.9866 14.8443C11.3853 14.9568 11.7997 14.7249 11.9122 14.3263C11.93 14.2635 11.9392 14.2003 11.9405 14.1379C12.173 13.8435 12.1534 13.4151 11.8817 13.1433C11.6777 12.9394 11.535 12.7224 11.4404 12.498C11.2794 12.1163 10.8396 11.9373 10.4579 12.0982C10.1917 12.2105 10.0241 12.4584 10.0017 12.7276C9.91499 12.6687 9.8285 12.6068 9.74234 12.5418C9.41164 12.2924 8.94136 12.3583 8.69195 12.689C8.44254 13.0197 8.50844 13.49 8.83915 13.7394C9.50887 14.2445 10.2399 14.6334 10.9866 14.8443Z" fill="#F61C4F"/>
<path d="M7.17602 12.0957C7.43159 12.4217 7.90302 12.4788 8.229 12.2232C8.55497 11.9676 8.61204 11.4962 8.35647 11.1702C7.9559 10.6593 7.6106 10.0919 7.34701 9.49316C7.18012 9.11406 6.7375 8.94202 6.3584 9.10891C5.97929 9.2758 5.80726 9.71842 5.97415 10.0975C6.29083 10.8169 6.70226 11.4915 7.17602 12.0957Z" fill="#F61C4F"/>
<path d="M5.33993 7.82117C5.38895 8.23247 5.76212 8.52616 6.17342 8.47714C6.58472 8.42812 6.87841 8.05496 6.82939 7.64365C6.75493 7.01887 6.78452 6.39198 6.93821 5.78167C7.03936 5.37999 6.79574 4.97238 6.39406 4.87123C5.99239 4.77008 5.58477 5.0137 5.48362 5.41538C5.28109 6.21968 5.24589 7.03206 5.33993 7.82117Z" fill="#F61C4F"/>
<path d="M6.50797 3.22881C6.2662 3.56514 6.34287 4.03379 6.6792 4.27555C7.01553 4.51732 7.48418 4.44066 7.72595 4.10433C7.90293 3.85811 8.10887 3.61506 8.3468 3.37713C8.63969 3.08424 8.63969 2.60936 8.3468 2.31647C8.0539 2.02358 7.57903 2.02358 7.28614 2.31647C6.99287 2.60974 6.73394 2.91445 6.50797 3.22881Z" fill="#F61C4F"/>
<path d="M12.2629 9.23557C12.1977 9.32203 12.1355 9.40883 12.0765 9.49581C12.346 9.51806 12.5942 9.6857 12.7065 9.9521C12.8674 10.3338 12.6884 10.7736 12.3068 10.9346C12.0824 11.0292 11.8654 11.1719 11.6614 11.3759C11.3893 11.648 10.96 11.6673 10.6656 11.4337C10.6036 11.4323 10.5408 11.4231 10.4784 11.4055C10.0798 11.2929 9.84791 10.8785 9.96048 10.4799C10.1714 9.7331 10.5602 9.00209 11.0653 8.33237C11.3147 8.00167 11.785 7.93576 12.1157 8.18517C12.4464 8.43458 12.5123 8.90486 12.2629 9.23557Z" fill="#F61C4F"/>
<path d="M14.3249 9.45468C13.9262 9.34211 13.5118 9.574 13.3993 9.97263C13.3815 10.0355 13.3723 10.0987 13.371 10.161C13.1385 10.4554 13.1581 10.8838 13.4298 11.1556C13.6338 11.3596 13.7765 11.5766 13.8712 11.801C14.0321 12.1826 14.4719 12.3616 14.8536 12.2007C15.1198 12.0885 15.2874 11.8406 15.3098 11.5713C15.3965 11.6302 15.483 11.6921 15.5692 11.7571C15.8999 12.0065 16.3701 11.9406 16.6196 11.6099C16.869 11.2792 16.8031 10.8089 16.4724 10.5595C15.8026 10.0544 15.0716 9.66556 14.3249 9.45468Z" fill="#F61C4F"/>
<path d="M18.1355 12.2032C17.8799 11.8772 17.4085 11.8201 17.0825 12.0757C16.7565 12.3313 16.6995 12.8027 16.955 13.1287C17.3556 13.6396 17.7009 14.207 17.9645 14.8058C18.1314 15.1849 18.574 15.3569 18.9531 15.19C19.3322 15.0231 19.5042 14.5805 19.3374 14.2014C19.0207 13.482 18.6092 12.8075 18.1355 12.2032Z" fill="#F61C4F"/>
<path d="M19.9716 16.4778C19.9225 16.0665 19.5494 15.7728 19.1381 15.8218C18.7268 15.8708 18.4331 16.244 18.4821 16.6553C18.5566 17.2801 18.527 17.9069 18.3733 18.5173C18.2721 18.9189 18.5158 19.3266 18.9174 19.4277C19.3191 19.5288 19.7267 19.2852 19.8279 18.8836C20.0304 18.0793 20.0656 17.2669 19.9716 16.4778Z" fill="#F61C4F"/>
<path d="M18.8035 21.0701C19.0453 20.7338 18.9686 20.2651 18.6323 20.0234C18.296 19.7816 17.8273 19.8583 17.5856 20.1946C17.4086 20.4408 17.2026 20.6839 16.9647 20.9218C16.6718 21.2147 16.6718 21.6896 16.9647 21.9825C17.2576 22.2754 17.7325 22.2754 18.0254 21.9825C18.3186 21.6892 18.5776 21.3845 18.8035 21.0701Z" fill="#F61C4F"/>
<path d="M12.5815 7.72222C12.3259 7.39625 12.383 6.92482 12.709 6.66925C13.3133 6.19548 13.9878 5.78405 14.7072 5.46738C15.0863 5.30049 15.5289 5.47252 15.6958 5.85162C15.8627 6.23073 15.6907 6.67334 15.3116 6.84024C14.7128 7.10383 14.1454 7.44913 13.6345 7.84969C13.3085 8.10526 12.8371 8.04819 12.5815 7.72222Z" fill="#F61C4F"/>
<path d="M16.3276 5.66665C16.2786 5.25534 16.5723 4.88218 16.9836 4.83316C17.7727 4.73911 18.585 4.77431 19.3893 4.97685C19.791 5.07799 20.0346 5.48561 19.9335 5.88729C19.8324 6.28896 19.4247 6.53259 19.0231 6.43144C18.4127 6.27775 17.7859 6.24816 17.1611 6.32262C16.7498 6.37164 16.3766 6.07795 16.3276 5.66665Z" fill="#F61C4F"/>
<path d="M20.5292 6.17243C20.7709 5.83609 21.2396 5.75943 21.5759 6.0012C21.8903 6.22716 22.195 6.48609 22.4883 6.77936C22.7811 7.07225 22.7811 7.54713 22.4883 7.84002C22.1954 8.13291 21.7205 8.13292 21.4276 7.84002C21.1897 7.6021 20.9466 7.39616 20.7004 7.21917C20.3641 6.97741 20.2874 6.50876 20.5292 6.17243Z" fill="#F61C4F"/>
<path d="M12.6025 17.6297C12.9285 17.3741 12.9856 16.9027 12.73 16.5767C12.4744 16.2507 12.003 16.1937 11.677 16.4492C11.1661 16.8498 10.5987 17.1951 9.99994 17.4587C9.62083 17.6256 9.4488 18.0682 9.61569 18.4473C9.78258 18.8264 10.2252 18.9984 10.6043 18.8316C11.3237 18.5149 11.9982 18.1034 12.6025 17.6297Z" fill="#F61C4F"/>
<path d="M8.32794 19.4658C8.73924 19.4168 9.03293 19.0436 8.98391 18.6323C8.9349 18.221 8.56173 17.9273 8.15043 17.9763C7.52565 18.0508 6.89876 18.0212 6.28844 17.8675C5.88677 17.7663 5.47915 18.01 5.378 18.4116C5.27686 18.8133 5.52048 19.2209 5.92215 19.3221C6.72645 19.5246 7.53883 19.5598 8.32794 19.4658Z" fill="#F61C4F"/>
<path d="M3.73558 18.2977C4.07192 18.5395 4.54056 18.4628 4.78233 18.1265C5.0241 17.7902 4.94744 17.3215 4.6111 17.0798C4.36489 16.9028 4.12183 16.6968 3.88391 16.4589C3.59101 16.166 3.11614 16.166 2.82325 16.4589C2.53035 16.7518 2.53035 17.2267 2.82325 17.5196C3.11651 17.8128 3.42123 18.0718 3.73558 18.2977Z" fill="#F61C4F"/>
</g>
<path d="M9.42762 12.6023C9.8338 13.4379 10.4443 14.1438 11.2532 14.5444C10.4602 14.727 9.54298 14.7647 8.6052 14.6318C5.81415 14.2364 3.25 12.4336 3.25 9.14941C3.25 8.7352 2.91421 8.39941 2.5 8.39941C2.08579 8.39941 1.75 8.7352 1.75 9.14941C1.75 13.4653 5.18585 15.6624 8.3948 16.117C10.0072 16.3454 11.6645 16.1596 12.9529 15.5333C13.8211 15.1113 14.5493 14.4686 14.9405 13.6121C15.083 14.3536 15.1034 15.1904 14.9824 16.0442C14.587 18.8353 12.7842 21.3994 9.5 21.3994C9.08579 21.3994 8.75 21.7352 8.75 22.1494C8.75 22.5636 9.08579 22.8994 9.5 22.8994C13.8158 22.8994 16.013 19.4636 16.4676 16.2546C16.696 14.6423 16.5102 12.9849 15.8839 11.6965C15.5377 10.9844 15.0432 10.3665 14.4039 9.95147C15.0291 9.87534 15.7064 9.881 16.3948 9.97852C19.1858 10.3739 21.75 12.1768 21.75 15.4609C21.75 15.8751 22.0858 16.2109 22.5 16.2109C22.9142 16.2109 23.25 15.8751 23.25 15.4609C23.25 11.1451 19.8141 8.94795 16.6052 8.49335C14.9928 8.26493 13.3355 8.45073 12.0471 9.07704C11.3555 9.41323 10.7527 9.88941 10.3384 10.5022C10.2261 9.80771 10.2181 9.03834 10.3291 8.25461C10.7245 5.46357 12.5274 2.89941 15.8115 2.89941C16.2257 2.89941 16.5615 2.56363 16.5615 2.14941C16.5615 1.7352 16.2257 1.39941 15.8115 1.39941C11.4957 1.39941 9.29854 4.83526 8.84394 8.04421C8.61552 9.65658 8.80132 11.3139 9.42762 12.6023Z" fill="#F61C4F"/>
</svg>
