<svg width="45" height="12" viewBox="0 0 45 12" fill="none" xmlns="http://www.w3.org/2000/svg">
<path d="M35.5001 0.233276V4.94445C36.4829 3.64731 37.9873 3.07098 39.4793 3.96924C41.5378 5.20985 40.5379 9.52214 40.7407 11.5966C40.5905 12.0646 39.4623 11.7851 39.0599 11.8542V6.59336C39.0599 6.54782 38.6791 5.90239 38.5971 5.80659C37.9114 5.00412 36.8079 5.04496 36.113 5.80188C35.9304 5.99975 35.5001 6.70015 35.5001 6.90744V11.6186L35.2432 11.829C35.0466 11.873 34.847 11.8636 34.6489 11.8636C34.3316 11.8636 33.9942 11.9154 33.7976 11.6186V0.233276H35.5001Z" fill="#8870E7"/>
<path d="M15.225 8.24149H9.18885C9.15325 10.1432 11.0074 11.1467 12.6526 10.2642C13.6339 9.73807 13.1928 9.11306 14.8427 9.34076C15.0191 9.36589 15.1553 9.27638 15.0686 9.57161C14.106 12.8412 8.75703 12.9024 7.71697 9.18686C5.82565 2.42162 15.6955 1.33805 15.2265 8.24149H15.225ZM13.5225 7.29926C13.4884 4.19302 9.2198 4.1993 9.18885 7.29926H13.5225Z" fill="#8870E7"/>
<path d="M18.0111 11.8542C17.4585 11.7836 16.7172 12.0662 16.3086 11.6187V3.84524H17.8579C17.9476 3.93632 17.6536 5.16594 18.0869 4.94294C19.1146 2.94855 22.3261 3.12443 23.0443 5.25546C23.0814 5.36538 23.2733 6.22753 23.2733 6.27935V11.6187L23.0164 11.8291C22.8199 11.8731 22.6202 11.8637 22.4221 11.8637C22.1048 11.8637 21.7674 11.9155 21.5708 11.6187V6.59343C21.5708 5.59937 20.0417 5.00419 19.1332 5.37795C18.7447 5.53813 18.0111 6.52119 18.0111 6.90751V11.8542Z" fill="#8870E7"/>
<path d="M6.86701 3.84485L6.78343 4.93784L2.68817 10.2835H6.86701L6.84534 11.5963L6.61318 11.8319C5.82075 11.7722 0.663751 12.0439 0.434688 11.7078C0.281464 11.4832 0.33254 10.8755 0.450166 10.6038L4.54543 5.2582H0.52136V3.84485H6.86701Z" fill="#8870E7"/>
<path d="M29.1542 5.25843H27.605V3.84351H29.1542L29.1527 1.802H30.767L30.8552 3.84508H32.5592V5.25686H29.6186V5.41233L30.8567 5.88502V10.2821H32.5608V11.8525C31.8194 11.8478 29.1558 11.9028 29.1558 10.8318V5.25686L29.1542 5.25843Z" fill="#8870E7"/>
<path d="M26.9879 3.84485C27.0652 3.90138 26.8331 4.04743 26.8331 4.08041V11.4612C26.8331 11.5005 26.9585 11.5539 26.9523 11.6183L26.7371 11.835L25.2854 11.8538V5.2582H23.8909V3.84485H26.9863H26.9879Z" fill="#8870E7"/>
<path d="M25.7492 2.31177C26.3681 2.31177 26.8698 1.80273 26.8698 1.1748C26.8698 0.546876 26.3681 0.0378418 25.7492 0.0378418C25.1303 0.0378418 24.6287 0.546876 24.6287 1.1748C24.6287 1.80273 25.1303 2.31177 25.7492 2.31177Z" fill="#8870E7"/>
<path d="M43.703 0.546535C43.3842 0.221464 42.4339 0.157077 42.0036 0.472726C40.6958 1.43066 42.1336 3.59466 43.5467 2.50795C44.076 2.10122 44.0992 0.950125 43.703 0.546535C45.1006 1.9646 43.2325 3.72972 41.8349 2.67599C40.3321 1.54216 42.1228 -1.05526 43.703 0.546535Z" fill="#8870E7"/>
<path d="M43.2385 0.860825V2.27261C42.8841 2.06845 43.1642 1.4827 42.4647 1.64445L42.3114 2.27261L42.3083 0.859253H43.2385V0.860825Z" fill="#8870E7"/>
</svg>
