<svg width="41" height="37" viewBox="0 0 41 37" fill="none" xmlns="http://www.w3.org/2000/svg">
<rect x="0.197266" width="40" height="37" rx="7" fill="url(#paint0_linear_1684_1945)"/>
<path d="M22.1187 13.6871L22.587 13.9657C23.7658 13.5561 26.0406 11.4077 27.2254 11.7784C27.6493 11.9115 29.3064 14.9631 29.1571 15.4874C28.929 16.2902 19.9227 20.9208 18.6874 21.8772C18.9538 22.2909 19.091 22.0513 19.3999 22.0021C21.4668 21.6765 24.7952 20.1097 26.6623 20.12C27.3627 20.1241 29.1228 20.9945 29.1894 21.6806C29.2439 22.2294 27.6311 25.1643 27.0539 25.2605C25.9901 25.4387 23.6709 23.4828 22.5951 23.0282L22.1187 23.3128V27.8185C22.1187 29.2255 17.2744 28.951 17.2744 28.0233V23.3128L16.8041 23.0343C15.6839 23.364 13.3768 25.4141 12.3393 25.2646C11.4875 24.7977 9.89699 22.2847 10.3108 21.3693C10.8013 20.2838 19.1698 16.4397 20.5019 15.1167C20.5686 14.6333 20.3768 14.8402 20.0781 14.8914C18.0637 15.2354 13.3263 16.9967 11.6147 16.5585C10.7952 16.3475 10.1029 15.8806 10.2078 14.9323C10.2421 14.621 11.6672 12.1102 11.9094 11.932C13.0236 11.1066 15.4841 13.6073 16.6588 13.9042C17.0221 13.9964 17.0241 13.9964 17.2724 13.6871V8.97669C17.2724 8.04894 22.1167 7.7745 22.1167 9.18149V13.6871H22.1187Z" fill="white"/>
<defs>
<linearGradient id="paint0_linear_1684_1945" x1="37.8717" y1="2.70743e-07" x2="-1.40745" y2="35.2098" gradientUnits="userSpaceOnUse">
<stop stop-color="#8870E7"/>
<stop offset="1" stop-color="#C370E7"/>
</linearGradient>
</defs>
</svg>
