<svg width="19" height="19" viewBox="0 0 19 19" fill="none" xmlns="http://www.w3.org/2000/svg">
<path opacity="0.5" d="M1.80298 9.63647C1.80298 10.9157 2.13458 11.3465 2.79778 12.2081C4.12201 13.9285 6.34287 15.8789 9.60601 15.8789C12.8691 15.8789 15.09 13.9285 16.4142 12.2081C17.0774 11.3465 17.409 10.9157 17.409 9.63647C17.409 8.35726 17.0774 7.92645 16.4142 7.06485C15.09 5.34446 12.8691 3.39404 9.60601 3.39404C6.34287 3.39404 4.12201 5.34446 2.79778 7.06485L2.79778 7.06485C2.13458 7.92646 1.80298 8.35726 1.80298 9.63647Z" fill="white"/>
<path fill-rule="evenodd" clip-rule="evenodd" d="M6.67993 9.63659C6.67993 8.02053 7.99001 6.71045 9.60607 6.71045C11.2221 6.71045 12.5322 8.02053 12.5322 9.63659C12.5322 11.2526 11.2221 12.5627 9.60607 12.5627C7.99001 12.5627 6.67993 11.2526 6.67993 9.63659ZM7.85039 9.63659C7.85039 8.66695 8.63643 7.8809 9.60607 7.8809C10.5757 7.8809 11.3618 8.66695 11.3618 9.63659C11.3618 10.6062 10.5757 11.3923 9.60607 11.3923C8.63643 11.3923 7.85039 10.6062 7.85039 9.63659Z" fill="white"/>
</svg>
