<svg width="34" height="35" viewBox="0 0 34 35" fill="none" xmlns="http://www.w3.org/2000/svg">
<path d="M22.5758 9.1363C22.5758 12.2157 20.0795 14.7121 17.0001 14.7121C13.9207 14.7121 11.4243 12.2157 11.4243 9.1363C11.4243 6.0569 13.9207 3.56055 17.0001 3.56055C20.0795 3.56055 22.5758 6.0569 22.5758 9.1363Z" fill="white"/>
<path opacity="0.5" d="M20.4535 31.3289C19.4413 31.4013 18.296 31.4393 17.0001 31.4393C5.84863 31.4393 5.84863 28.6309 5.84863 25.1665C5.84863 21.7022 10.8413 18.8938 17.0001 18.8938C21.0155 18.8938 24.5352 20.0876 26.4988 21.8786C25.7792 21.6817 24.7695 21.6817 23.2729 21.6817C20.973 21.6817 19.8231 21.6817 19.1086 22.3962C18.3941 23.1106 18.3941 24.2606 18.3941 26.5605C18.3941 28.8603 18.3941 30.0103 19.1086 30.7248C19.4397 31.0559 19.8643 31.2335 20.4535 31.3289Z" fill="white"/>
<path fill-rule="evenodd" clip-rule="evenodd" d="M23.2728 31.4395C20.9729 31.4395 19.823 31.4395 19.1085 30.725C18.394 30.0105 18.394 28.8606 18.394 26.5607C18.394 24.2608 18.394 23.1108 19.1085 22.3964C19.823 21.6819 20.9729 21.6819 23.2728 21.6819C25.5727 21.6819 26.7227 21.6819 27.4371 22.3964C28.1516 23.1108 28.1516 24.2608 28.1516 26.5607C28.1516 28.8606 28.1516 30.0105 27.4371 30.725C26.7227 31.4395 25.5727 31.4395 23.2728 31.4395ZM24.086 24.3923C24.086 23.9432 23.7219 23.5792 23.2728 23.5792C22.8238 23.5792 22.4597 23.9432 22.4597 24.3923V25.7475H21.1045C20.6554 25.7475 20.2913 26.1116 20.2913 26.5607C20.2913 27.0098 20.6554 27.3738 21.1045 27.3738H22.4597V28.729C22.4597 29.1781 22.8238 29.5422 23.2728 29.5422C23.7219 29.5422 24.086 29.1781 24.086 28.729V27.3738H25.4412C25.8903 27.3738 26.2543 27.0098 26.2543 26.5607C26.2543 26.1116 25.8903 25.7475 25.4412 25.7475H24.086V24.3923Z" fill="white"/>
</svg>
