<svg width="23" height="22" viewBox="0 0 23 22" fill="none" xmlns="http://www.w3.org/2000/svg">
<path opacity="0.5" d="M19.3604 14.6149V9.24285C19.3604 6.71042 19.3604 5.44421 18.5737 4.65748C17.8857 3.96951 16.8311 3.88315 14.8837 3.87231H7.72088C5.77348 3.88315 4.71884 3.96951 4.03087 4.65748C3.24414 5.44421 3.24414 6.71042 3.24414 9.24285V14.6149C3.24414 17.1474 3.24414 18.4136 4.03087 19.2003C4.81759 19.987 6.0838 19.987 8.61623 19.987H13.9883C16.5208 19.987 17.787 19.987 18.5737 19.2003C19.3604 18.4136 19.3604 17.1474 19.3604 14.6149Z" fill="#A3A2AA"/>
<path d="M7.72095 3.42457C7.72095 2.68284 8.32224 2.08154 9.06397 2.08154H13.5407C14.2824 2.08154 14.8837 2.68284 14.8837 3.42457V4.31992C14.8837 5.06165 14.2824 5.66294 13.5407 5.66294H9.06397C8.32224 5.66294 7.72095 5.06165 7.72095 4.31992V3.42457Z" fill="#A3A2AA"/>
<path fill-rule="evenodd" clip-rule="evenodd" d="M11.3024 8.57288C11.6732 8.57288 11.9739 8.87352 11.9739 9.24439V11.2589L13.9884 11.2589C14.3593 11.2589 14.6599 11.5596 14.6599 11.9305C14.6599 12.3013 14.3593 12.602 13.9884 12.602L11.9739 12.602L11.9739 14.6165C11.9739 14.9873 11.6732 15.288 11.3024 15.288C10.9315 15.288 10.6309 14.9873 10.6309 14.6165L10.6309 12.602H8.61634C8.24547 12.602 7.94482 12.3013 7.94482 11.9305C7.94482 11.5596 8.24547 11.2589 8.61634 11.2589L10.6309 11.2589L10.6309 9.24439C10.6309 8.87352 10.9315 8.57288 11.3024 8.57288Z" fill="#A3A2AA"/>
</svg>
