<svg width="26" height="26" viewBox="0 0 26 26" fill="none" xmlns="http://www.w3.org/2000/svg">
<path fill-rule="evenodd" clip-rule="evenodd" d="M22.6347 11.6366L22.0853 13.687C21.4439 16.0806 21.1233 17.2774 20.3963 18.0536C19.8223 18.6664 19.0794 19.0953 18.2616 19.286C18.1595 19.3098 18.0557 19.3282 17.9494 19.3413C16.9782 19.4611 15.793 19.1435 13.6356 18.5655C11.2421 17.9241 10.0453 17.6034 9.26911 16.8765C8.65624 16.3024 8.22735 15.5596 8.03668 14.7418C7.79519 13.7061 8.11586 12.5093 8.75721 10.1158L9.30664 8.06532C9.39885 7.72117 9.48449 7.40155 9.56561 7.10458C10.0486 5.33623 10.3732 4.36336 10.9956 3.6988C11.5697 3.08593 12.3125 2.65704 13.1303 2.46636C14.166 2.22488 15.3628 2.54555 17.7563 3.1869C20.1499 3.82825 21.3466 4.14893 22.1228 4.87591C22.7357 5.44992 23.1646 6.19278 23.3553 7.01055C23.5967 8.04624 23.2761 9.24301 22.6347 11.6366ZM12.2575 10.6712C12.3713 10.2465 12.8078 9.9945 13.2325 10.1083L18.3587 11.4818C18.7834 11.5956 19.0354 12.0321 18.9216 12.4568C18.8078 12.8815 18.3713 13.1335 17.9466 13.0197L12.8204 11.6461C12.3958 11.5324 12.1438 11.0958 12.2575 10.6712ZM11.433 13.7466C11.5468 13.3219 11.9833 13.0699 12.4079 13.1837L15.4837 14.0078C15.9083 14.1216 16.1603 14.5581 16.0466 14.9828C15.9328 15.4074 15.4963 15.6594 15.0716 15.5457L11.9959 14.7215C11.5712 14.6077 11.3192 14.1712 11.433 13.7466Z" fill="#979797"/>
<path opacity="0.5" d="M17.9492 19.3413C17.7279 20.0189 17.3388 20.6318 16.8157 21.1218C16.0395 21.8487 14.8427 22.1694 12.4492 22.8108C10.0556 23.4521 8.85885 23.7728 7.82316 23.5313C7.00539 23.3406 6.26253 22.9117 5.68851 22.2989C4.96153 21.5227 4.64086 20.3259 3.99951 17.9324L3.45008 15.8819C2.80873 13.4883 2.48806 12.2916 2.72955 11.2559C2.92022 10.4381 3.34912 9.69524 3.96198 9.12122C4.73817 8.39424 5.93495 8.07357 8.3285 7.43222C8.78132 7.31089 9.19133 7.20102 9.5655 7.10428C9.56547 7.10439 9.56553 7.10417 9.5655 7.10428C9.48438 7.40125 9.39874 7.7212 9.30652 8.06534L8.7571 10.1158C8.11575 12.5094 7.79508 13.7061 8.03657 14.7418C8.22724 15.5596 8.65613 16.3025 9.269 16.8765C10.0452 17.6035 11.242 17.9241 13.6355 18.5655C15.7928 19.1435 16.978 19.4611 17.9492 19.3413Z" fill="#979797"/>
</svg>
