<svg width="31" height="31" viewBox="0 0 31 31" fill="none" xmlns="http://www.w3.org/2000/svg">
<path opacity="0.5" d="M2.5835 10.333V15.4997C2.5835 19.1531 2.5835 20.9797 3.71846 22.1147C4.33374 22.73 5.15232 23.0117 6.35503 23.1407C6.45061 23.0117 6.54109 22.91 6.60564 22.839C6.75569 22.674 6.94595 22.4865 7.13041 22.3046L9.05877 20.4031L9.77092 19.6817C10.2389 16.9401 12.6257 14.8538 15.5002 14.8538C18.3748 14.8538 20.7615 16.9401 21.2296 19.6817L21.9417 20.4031L23.8702 22.3047C24.0546 22.4865 24.2448 22.6741 24.3948 22.839C24.4594 22.91 24.5499 23.0117 24.6454 23.1407C25.8481 23.0117 26.6666 22.73 27.2819 22.1147C28.4168 20.9798 28.4168 19.1531 28.4168 15.4997V10.333C28.4168 6.67962 28.4168 4.85293 27.2819 3.71797C26.1469 2.58301 24.3202 2.58301 20.6668 2.58301H10.3335C6.68011 2.58301 4.85342 2.58301 3.71846 3.71797C2.5835 4.85293 2.5835 6.67962 2.5835 10.333Z" fill="#F5F5FE"/>
<path d="M9.0415 11.3021C8.50648 11.3021 8.07275 11.7358 8.07275 12.2708C8.07275 12.8059 8.50648 13.2396 9.0415 13.2396H21.9582C22.4932 13.2396 22.9269 12.8059 22.9269 12.2708C22.9269 11.7358 22.4932 11.3021 21.9582 11.3021H9.0415Z" fill="#F5F5FE"/>
<path d="M10.6561 7.75C10.6561 7.21497 11.0898 6.78125 11.6248 6.78125H19.3748C19.9099 6.78125 20.3436 7.21497 20.3436 7.75C20.3436 8.28503 19.9099 8.71875 19.3748 8.71875H11.6248C11.0898 8.71875 10.6561 8.28503 10.6561 7.75Z" fill="#F5F5FE"/>
<path d="M11.6264 20.5603C11.6255 20.5958 11.625 20.6313 11.625 20.667C11.625 22.8071 13.3599 24.542 15.5 24.542C17.6401 24.542 19.375 22.8071 19.375 20.667C19.375 20.6313 19.3745 20.5958 19.3736 20.5603C19.3171 18.4695 17.6044 16.792 15.5 16.792C13.4937 16.792 11.8434 18.3168 11.645 20.2708C11.6353 20.3663 11.6291 20.4629 11.6264 20.5603Z" fill="#F5F5FE"/>
<path d="M9.91444 22.2807L8.51884 23.657C8.10025 24.0697 7.89096 24.2761 7.81853 24.4509C7.65349 24.8492 7.79473 25.291 8.15407 25.5005C8.31176 25.5924 8.5962 25.6211 9.16507 25.6784C9.48625 25.7107 9.64685 25.7269 9.78136 25.776C10.0825 25.8859 10.3167 26.1169 10.4282 26.4139C10.478 26.5465 10.4944 26.7049 10.5272 27.0216C10.5853 27.5826 10.6144 27.863 10.7076 28.0185C10.9201 28.3729 11.3681 28.5122 11.772 28.3494C11.9492 28.278 12.1585 28.0716 12.5771 27.6588L13.9727 26.2767C12.019 25.7461 10.4743 24.2222 9.91444 22.2807Z" fill="#F5F5FE"/>
<path d="M17.0273 26.2767L18.4229 27.6588C18.8415 28.0716 19.0508 28.278 19.228 28.3494C19.6319 28.5122 20.0799 28.3729 20.2924 28.0185C20.3856 27.863 20.4147 27.5826 20.4728 27.0216C20.5056 26.7049 20.522 26.5465 20.5718 26.4139C20.6833 26.1169 20.9175 25.8859 21.2186 25.776C21.3532 25.7269 21.5137 25.7107 21.8349 25.6784C22.4038 25.6211 22.6882 25.5924 22.8459 25.5005C23.2053 25.291 23.3465 24.8492 23.1815 24.4509C23.109 24.2761 22.8997 24.0697 22.4812 23.657L21.0856 22.2807C20.5257 24.2222 18.981 25.7461 17.0273 26.2767Z" fill="#F5F5FE"/>
</svg>
