<svg width="20" height="20" viewBox="0 0 20 20" fill="none" xmlns="http://www.w3.org/2000/svg">
<path opacity="0.5" d="M18.1212 13.1795C18.1212 10.8497 18.1212 9.68483 17.3975 8.96107C16.9939 8.55755 16.4533 8.37901 15.6501 8.3C14.9638 8.2791 13.3439 8.2373 12.3554 8.2373H6.58954C4.90519 8.2373 3.82971 8.2373 3.0896 8.51081L17.8632 16.6363C18.1212 15.8977 18.1212 14.8314 18.1212 13.1795Z" fill="#9A9A9A"/>
<path d="M8.86089 13.0953L2.06835 9.35938C1.64734 10.1017 1.64734 11.2348 1.64734 13.1796C1.64734 15.3753 1.64734 16.5363 2.25322 17.2685L8.86089 13.0953Z" fill="#9A9A9A"/>
<path d="M6.58956 18.1216H13.1791C15.2237 18.1216 16.3711 18.1216 17.1106 17.6325L10.0977 13.7754L3.47253 17.9597C4.19019 18.1216 5.17522 18.1216 6.58956 18.1216Z" fill="#9A9A9A"/>
<path d="M14.0028 1.64746C12.6381 1.64746 11.5317 2.7538 11.5317 4.11854C11.5317 5.26996 12.3193 6.23745 13.385 6.51176L13.385 10.7081C13.385 11.0493 13.6616 11.3258 14.0028 11.3258C14.344 11.3258 14.6206 11.0493 14.6206 10.7081V6.51176C15.6864 6.23744 16.4739 5.26996 16.4739 4.11854C16.4739 2.7538 15.3675 1.64746 14.0028 1.64746Z" fill="#9A9A9A"/>
</svg>
