<svg width="20" height="20" viewBox="0 0 20 20" fill="none" xmlns="http://www.w3.org/2000/svg">
<path fill-rule="evenodd" clip-rule="evenodd" d="M4.77427 14.9943L17.7193 2.04927C16.9052 1.23512 15.3627 1.74924 12.2779 2.77747L4.59185 5.3394C2.87707 5.91097 2.01968 6.19675 1.75943 6.82549C1.69826 6.97326 1.66128 7.12992 1.6499 7.28944C1.60148 7.96818 2.24054 8.60722 3.51867 9.88529L3.75146 10.1181C3.96126 10.3279 4.06615 10.4328 4.14545 10.5495C4.30184 10.7798 4.39061 11.0493 4.40171 11.3274C4.40733 11.4685 4.38531 11.6152 4.34128 11.9086C4.18009 12.9825 4.0995 13.5194 4.19444 13.9326C4.28828 14.341 4.49231 14.7058 4.77427 14.9943Z" fill="#9A9A9A"/>
<path opacity="0.5" d="M14.4126 15.2266L16.9913 7.49104C18.0195 4.40632 18.5337 2.86396 17.7195 2.0498L4.77441 14.9949C5.0611 15.2883 5.42834 15.5028 5.84219 15.604C6.25401 15.7048 6.79206 15.6318 7.86817 15.4857L7.927 15.4777C8.23035 15.4366 8.38203 15.416 8.52767 15.4248C8.79204 15.4407 9.04738 15.5268 9.26743 15.6742C9.38864 15.7554 9.49687 15.8637 9.71334 16.0801L9.9203 16.2871C11.1643 17.531 11.7863 18.153 12.4462 18.1206C12.628 18.1117 12.8068 18.0695 12.9734 17.9961C13.5781 17.73 13.8563 16.8956 14.4126 15.2266Z" fill="#9A9A9A"/>
</svg>
