<svg width="21" height="22" viewBox="0 0 21 22" fill="none" xmlns="http://www.w3.org/2000/svg">
<path fill-rule="evenodd" clip-rule="evenodd" d="M2.14869 2.34375C2.53122 2.22687 3.0365 2.11269 3.65556 2.00952C5.29801 1.73577 7.59676 1.5625 10.1562 1.5625C10.5877 1.5625 10.9375 1.21272 10.9375 0.78125C10.9375 0.349778 10.5877 0 10.1562 0C7.53807 0 5.14932 0.176503 3.39869 0.468275C2.52964 0.613117 1.78089 0.792244 1.23157 1.0087C0.960797 1.1154 0.692527 1.24865 0.478344 1.4231C0.273881 1.58963 0 1.89468 0 2.34375C0 2.79282 0.273881 3.09787 0.478344 3.2644C0.692527 3.43885 0.960797 3.5721 1.23157 3.6788C1.78089 3.89526 2.52964 4.07438 3.39869 4.21922C5.14932 4.511 7.53807 4.6875 10.1562 4.6875C12.7744 4.6875 15.1632 4.511 16.9138 4.21922C17.7829 4.07438 18.5316 3.89526 19.0809 3.6788C19.3517 3.5721 19.62 3.43885 19.8342 3.2644C20.0386 3.09787 20.3125 2.79282 20.3125 2.34375C20.3125 1.78607 19.8989 1.45103 19.6569 1.29501C19.3741 1.11262 19.0097 0.968298 18.6182 0.848801C17.8239 0.606368 16.7279 0.410369 15.4512 0.267933C15.0224 0.220093 14.636 0.528933 14.5882 0.957745C14.5403 1.38656 14.8491 1.77296 15.278 1.8208C16.5137 1.95866 17.5011 2.14149 18.162 2.34323L18.1638 2.34377C17.7812 2.46064 17.276 2.57481 16.6569 2.67798C15.0145 2.95173 12.7157 3.125 10.1562 3.125C7.59676 3.125 5.29801 2.95173 3.65556 2.67798C3.0365 2.57481 2.53122 2.46063 2.14869 2.34375ZM18.8627 2.64739C18.8627 2.64739 18.857 2.64352 18.8493 2.63546C18.8595 2.64331 18.8627 2.64739 18.8627 2.64739ZM4.52195 8.63345C4.29554 8.34305 3.88771 8.24528 3.54842 8.4201C3.16487 8.61772 3.01414 9.08886 3.21176 9.47241L3.90625 9.11458C3.21176 9.47241 3.21276 9.47433 3.21276 9.47433L3.21376 9.47626L3.2158 9.48013L3.21999 9.48796L3.22889 9.50391C3.23505 9.51467 3.24166 9.52567 3.24875 9.53689C3.26293 9.55935 3.27896 9.58255 3.29703 9.60638C3.33322 9.65409 3.37714 9.70363 3.43015 9.75415C3.53596 9.85499 3.6771 9.95888 3.86535 10.0611C4.23779 10.2633 4.81821 10.4717 5.7408 10.6349C6.16568 10.7101 6.57103 10.4266 6.64618 10.0017C6.72133 9.57682 6.43782 9.17147 6.01294 9.09631C5.19308 8.9513 4.78819 8.7842 4.61093 8.68795C4.56588 8.6635 4.53755 8.6447 4.52195 8.63345ZM16.7641 8.4201C17.1476 8.61772 17.2984 9.08886 17.1007 9.47241L16.4062 9.11458C17.1007 9.47241 17.0992 9.47536 17.0992 9.47536L17.0977 9.47832L17.0945 9.48429L17.0878 9.49642C17.0833 9.50458 17.0785 9.51289 17.0734 9.52134C17.0632 9.53825 17.0519 9.55564 17.0394 9.57347C17.0145 9.60916 16.9852 9.64622 16.9507 9.68421C16.8818 9.76021 16.7935 9.83877 16.681 9.91749C16.4578 10.0736 16.1329 10.2349 15.653 10.3823C14.6992 10.6751 13.0494 10.9375 10.1562 10.9375C9.72478 10.9375 9.375 10.5877 9.375 10.1562C9.375 9.72478 9.72478 9.375 10.1562 9.375C12.9764 9.375 14.4516 9.11661 15.1945 8.88856C15.5629 8.77547 15.7292 8.67641 15.7853 8.6372C15.7872 8.63587 15.7906 8.63345 15.7906 8.63345C16.017 8.34305 16.4248 8.24528 16.7641 8.4201Z" fill="#EFEEFC"/>
<path fill-rule="evenodd" clip-rule="evenodd" d="M15.0622 14.5912C15.2017 14.9995 14.9838 15.4436 14.5755 15.583C13.7413 15.868 12.7153 16.1458 11.1979 16.1458C9.74294 16.1458 8.66251 16.0151 7.92904 15.8776C7.50495 15.7982 7.22557 15.39 7.30503 14.9659C7.38449 14.5418 7.7927 14.2624 8.21679 14.3419C8.85306 14.4611 9.83708 14.5833 11.1979 14.5833C12.4964 14.5833 13.3473 14.3515 14.0703 14.1045C14.4786 13.965 14.9227 14.1829 15.0622 14.5912ZM10.4167 20.5729C10.4167 20.1414 10.7664 19.7917 11.1979 19.7917H11.7188C12.1502 19.7917 12.5 20.1414 12.5 20.5729C12.5 21.0044 12.1502 21.3542 11.7188 21.3542H11.1979C10.7664 21.3542 10.4167 21.0044 10.4167 20.5729Z" fill="#EFEEFC"/>
</svg>
