<svg width="23" height="22" viewBox="0 0 23 22" fill="none" xmlns="http://www.w3.org/2000/svg">
<rect x="1.41577" y="0.5" width="21" height="21" rx="10.5" stroke="#6B7280"/>
<path d="M11.9158 5.625C12.33 5.625 12.6658 5.96079 12.6658 6.375V12.375C12.6658 12.7892 12.33 13.125 11.9158 13.125C11.5016 13.125 11.1658 12.7892 11.1658 12.375V6.375C11.1658 5.96079 11.5016 5.625 11.9158 5.625Z" fill="#6B7280"/>
<path d="M11.9158 16.375C12.4681 16.375 12.9158 15.9273 12.9158 15.375C12.9158 14.8227 12.4681 14.375 11.9158 14.375C11.3635 14.375 10.9158 14.8227 10.9158 15.375C10.9158 15.9273 11.3635 16.375 11.9158 16.375Z" fill="#6B7280"/>
</svg>
